<?xml version="1.0" encoding="UTF-8"?><svg id="a" xmlns="http://www.w3.org/2000/svg" viewBox="0 0 226.64 64.63"><defs><style>.b{fill:#f47d0d;}.c{fill:#0b042a;}</style></defs><g><path class="c" d="M0,45.94H12.26c.09,4.32,4.32,7.93,9.96,7.93,5.47,0,9.08-3,9.08-7.32,0-3.35-2.47-5.73-7.67-7.32l-7.41-2.12C2.91,33.59,.53,25.57,.53,20.1c0-10.85,9.35-18.34,20.99-18.34,11.46,0,20.28,6.97,20.28,18.52h-12.26c0-4.32-3-7.67-8.29-7.67-4.76,0-8.38,3.17-8.38,7.23,0,1.5,.44,4.58,6.79,6.44l6.79,1.94c9.17,2.73,17.19,7.41,17.19,17.72,0,12.08-10.32,18.69-21.78,18.69C8.91,64.63,0,56.61,0,45.94Z"/><path class="c" d="M52.73,63.57V22.4h11.55V63.57h-11.55Z"/><path class="c" d="M100.34,10.76c-6.61,0-8.73,3.62-8.82,8.55v3.09h8.99v8.99h-8.99V63.57h-11.55V31.39h-7.76v-8.99h7.76v-3C79.97,7.05,86.32,0,98.04,0h4.94V10.76h-2.65Z"/><path class="c" d="M132.25,22.4v8.99h-8.73V63.57h-11.55V31.39h-7.49v-8.99h7.49V7.41h11.55v14.99h8.73Z"/><path class="c" d="M177.59,46.73h-30.95c1.23,4.85,5.11,7.67,10.58,7.67,4.23,0,8.29-1.94,10.85-4.85l6.7,6.79c-3.88,5.2-11.02,8.29-18.25,8.29-12.7,0-21.96-8.91-21.96-21.6,0-13.31,10.14-21.69,21.87-21.69,11.81,0,21.43,8.38,21.43,20.98,0,1.15-.09,2.56-.26,4.41Zm-11.37-7.49c-.35-4.85-4.32-7.94-9.52-7.94-4.76,0-8.82,2.38-10.05,7.94h19.57Z"/><path class="c" d="M215.09,0h11.55V63.57h-11.55v-5.11c-2.91,4.23-8.64,6.17-13.23,6.17-10.58,0-20.19-8.46-20.19-21.69,0-13.23,9.61-21.6,20.19-21.6,4.76,0,10.32,1.85,13.23,6.08V0Zm-.35,42.94c0-6.35-5.29-10.85-10.67-10.85-5.82,0-10.67,4.76-10.67,10.85s4.85,10.93,10.67,10.93c5.64,0,10.67-4.67,10.67-10.93Z"/></g><path class="b" d="M51.14,8.2c0-3.88,3.35-6.88,7.32-6.88,4.06,0,7.32,3,7.32,6.88,0,3.88-3.26,6.97-7.32,6.97-3.97,0-7.32-3.09-7.32-6.97Z"/></svg>